# xmcd
#
# Track frame offsets:
#	150
#	13373
#	27019
#	39797
#	54085
#	67945
#	81983
#	94221
#	107841
#	121520
#	133044
#	146711
#	160023
#	174759
#	190243
#	202376
#	215178
#	230146
#	243086
#	257223
#
# Disc length: 3603 seconds
# Revision: 0
# Processed by: cddbd v1.5.2PL0 Copyright (c) Steve Scherf et al.
# Submitted via: dBpowerAMP V12.0
#
DISCID=160e1114
DTITLE=Various Artist - Drink Drugs Sex - CD2
DYEAR=1932
DGENRE=Blues
TTITLE0=Cab Calloway and His Orchestra - Reefer Man
TTITLE1=Leadbelly - Take A Whiff On Me
TTITLE2=Ink Spots, The - That Cat Is High
TTITLE3=Charley Patton - Spoonful Blues
TTITLE4=Ella Fitzgerald with the Chick Webb orchestra - Wacky Dust
TTITLE5=Clarence Williams and his Orchestra - Jerry The Junker
TTITLE6=Doc Pomus with Curley Russell's All Stars - My Good Pott
TTITLE7=Lil Green - Knockin' Myself Out
TTITLE8=Jazz Gillum and His Jazz Boys featuring Big Bill Broonzy - Reefer Headed Woman
TTITLE9=Julia Lee and Her Boyfriends - Do You Want It
TTITLE10=Stuff Smith and His Onyx Club Boys - Here Comes The Man With The Jive
TTITLE11=Little Willie Littlefield - Goofy Dust Blues
TTITLE12=Dr. Jo Jo Adams with the Maxwell Davis All Stars - When I'm In My Tea (The Reefer Song)
TTITLE13=Cab Calloway and His Orchestra - Kickin' The Gong Around
TTITLE14=Lonnie Johnson - Jelly Roll Baker
TTITLE15=Cats And The Fiddle, The - Killin' Jive
TTITLE16=Julia Lee and Tommy Douglas Orchestra - Lotus Blossom (Sweet Marijuana)
TTITLE17=Barney Bigard Sextet - Sweet Marijuana Brown
TTITLE18=Harry 'The Hipster' Gibson - Who Put The Benzedrine In Mrs Murphy's Ovaltine
TTITLE19=Frankie 'Half Pint' Jaxon - Jive Man Blues
EXTD=
EXTT0=
EXTT1=
EXTT2=
EXTT3=
EXTT4=
EXTT5=
EXTT6=
EXTT7=
EXTT8=
EXTT9=
EXTT10=
EXTT11=
EXTT12=
EXTT13=
EXTT14=
EXTT15=
EXTT16=
EXTT17=
EXTT18=
EXTT19=
PLAYORDER=
